<?xml version="1.0" standalone="no"?>
<!DOCTYPE svg PUBLIC "-//W3C//DTD SVG 20010904//EN"
 "http://www.w3.org/TR/2001/REC-SVG-20010904/DTD/svg10.dtd">
<svg version="1.0" xmlns="http://www.w3.org/2000/svg"
 width="300.000000pt" height="257.000000pt" viewBox="0 0 300.000000 257.000000"
 preserveAspectRatio="xMidYMid meet">
<metadata>
Created by potrace 1.10, written by Peter Selinger 2001-2011
</metadata>
<g transform="translate(0.000000,257.000000) scale(0.100000,-0.100000)"
fill="#000000" stroke="none">
<path d="M1148 2305 c-10 -10 5 -55 18 -55 16 0 16 5 8 38 -6 21 -15 27 -26
17z"/>
<path d="M1251 2282 c-15 -28 -14 -42 3 -42 16 0 29 41 17 53 -5 5 -14 0 -20
-11z"/>
<path d="M1050 2268 c0 -22 17 -41 29 -34 8 5 8 13 1 27 -12 21 -30 26 -30 7z"/>
<path d="M1322 2238 c-16 -16 -15 -38 2 -38 17 0 30 30 18 42 -4 4 -13 3 -20
-4z"/>
<path d="M966 2232 c-8 -13 23 -52 40 -52 8 0 14 6 14 13 -1 16 -47 50 -54 39z"/>
<path d="M1141 2211 c-102 -17 -161 -156 -114 -272 13 -35 25 -45 69 -65 46
-20 54 -28 60 -59 3 -19 3 -46 0 -59 -3 -14 -2 -28 4 -31 5 -3 10 -14 10 -24
0 -29 24 -43 64 -36 19 4 43 13 52 20 26 18 28 82 4 115 -27 38 -26 44 19 93
62 67 72 149 28 233 -20 38 -72 84 -95 84 -9 0 -26 2 -37 4 -11 2 -40 1 -64
-3z m118 -39 c47 -23 76 -82 76 -153 0 -52 -3 -61 -42 -107 -24 -28 -43 -56
-43 -62 0 -6 -11 -15 -25 -22 -27 -12 -55 2 -55 29 0 8 -24 25 -53 38 -62 27
-77 52 -77 127 0 84 35 140 100 161 32 11 87 6 119 -11z m1 -376 c0 -9 -12
-16 -27 -18 -16 -2 -26 -7 -23 -13 6 -11 15 -11 48 -1 12 4 22 3 22 -2 0 -5
-14 -13 -31 -18 -17 -5 -29 -13 -27 -19 3 -10 7 -10 48 0 l25 7 -24 -21 c-31
-28 -71 -28 -71 -1 0 11 -4 20 -9 20 -5 0 -8 15 -6 33 2 31 10 37 68 46 4 0 7
-5 7 -13z"/>
<path d="M1213 2033 c-13 -2 -23 -9 -23 -15 0 -6 -6 -6 -15 2 -12 10 -16 9
-21 -4 -5 -13 -9 -14 -20 -5 -11 9 -15 8 -20 -4 -9 -26 6 -40 37 -33 26 5 29
3 34 -32 9 -53 13 -62 26 -62 8 0 9 18 4 58 -6 53 -5 58 16 67 13 6 24 16 27
23 4 12 -4 13 -45 5z"/>
<path d="M1365 2157 c-11 -9 -14 -16 -7 -21 13 -8 62 10 62 24 0 14 -33 12
-55 -3z"/>
<path d="M930 2120 c0 -6 10 -15 23 -19 27 -11 49 5 27 19 -20 13 -50 13 -50
0z"/>
<path d="M1775 2076 c-23 -34 -4 -71 31 -62 13 4 24 3 24 -1 0 -5 18 -31 39
-60 34 -44 37 -53 25 -64 -8 -6 -14 -20 -14 -30 0 -26 -52 -97 -67 -92 -21 7
-53 -17 -53 -41 0 -31 33 -60 59 -51 21 6 36 38 26 55 -3 6 6 28 22 49 24 34
32 39 55 34 16 -3 34 0 42 6 11 10 23 8 54 -8 32 -16 40 -27 45 -57 5 -30 2
-40 -13 -51 -28 -20 -25 -59 5 -79 36 -23 77 -111 63 -134 -17 -27 -3 -50 30
-50 56 0 70 54 21 77 -17 8 -34 31 -47 62 -19 46 -19 50 -4 63 10 8 43 22 75
32 46 14 61 15 73 5 11 -9 18 -8 34 6 24 21 26 48 5 65 -18 15 -52 5 -65 -20
-6 -11 -34 -26 -66 -35 -69 -20 -79 -13 -86 56 l-5 47 49 23 c28 13 59 31 70
41 12 10 29 18 39 18 24 0 36 45 18 66 -7 9 -24 14 -40 12 -21 -2 -37 6 -64
32 -19 18 -35 41 -35 50 0 22 -20 40 -45 40 -27 0 -45 -18 -45 -47 0 -27 33
-48 56 -35 13 7 26 0 56 -29 22 -21 37 -43 33 -49 -4 -6 -2 -17 5 -25 9 -10
-2 -20 -52 -47 l-64 -33 -34 20 c-78 45 -182 170 -173 206 7 24 -23 59 -48 59
-10 0 -26 -11 -34 -24z m465 -162 c0 -8 -9 -14 -20 -14 -22 0 -28 26 -7 33 16
6 27 -1 27 -19z m-291 -47 c16 -20 -6 -39 -31 -26 -15 8 -17 13 -7 25 14 17
23 18 38 1z m141 -207 c0 -11 -4 -20 -9 -20 -13 0 -32 26 -24 33 13 14 33 6
33 -13z"/>
<path d="M930 2030 c-22 -14 0 -30 28 -19 12 4 22 13 22 19 0 13 -30 13 -50 0z"/>
<path d="M574 1783 l-111 -4 -7 -44 c-6 -51 -28 -99 -60 -133 l-21 -23 24 -42
c66 -116 85 -138 148 -168 61 -31 61 -31 149 -20 48 6 91 16 95 23 15 25 21
134 9 196 -6 34 -20 84 -31 110 -22 51 -66 113 -77 110 -4 -1 -57 -4 -118 -5z
m135 -51 c51 -72 83 -218 67 -305 -8 -42 -12 -44 -107 -52 -67 -6 -72 -5 -55
9 10 8 15 20 11 26 -5 9 -10 9 -18 1 -14 -14 -62 -14 -87 -1 -18 10 -110 152
-110 170 0 6 4 10 8 10 16 0 62 97 62 128 l0 31 88 4 c48 1 95 4 104 5 9 1 26
-11 37 -26z"/>
<path d="M616 1614 c-3 -9 -6 -31 -6 -51 0 -30 -3 -34 -17 -28 -28 11 -46 11
-50 -1 -4 -12 73 -38 87 -29 12 8 13 112 1 119 -5 3 -12 -1 -15 -10z"/>
<path d="M1500 1715 c-9 -11 -10 -22 -3 -37 15 -34 -5 -122 -31 -134 -13 -5
-22 -20 -24 -37 -3 -25 -7 -28 -31 -22 -14 3 -64 1 -109 -4 -109 -12 -150 -38
-189 -120 l-28 -59 -50 -4 c-43 -3 -52 -7 -63 -31 -7 -15 -16 -59 -19 -98 -7
-82 -2 -89 68 -89 l46 0 6 -49 c8 -64 38 -123 77 -151 38 -27 111 -50 157 -50
29 0 33 -3 28 -19 -4 -13 3 -25 22 -40 23 -19 35 -21 82 -16 95 10 101 13 108
45 7 39 26 38 63 -2 53 -57 73 -106 78 -192 5 -87 -12 -209 -33 -226 -8 -7
-93 -13 -218 -17 l-205 -6 -8 34 c-11 49 -7 250 6 301 6 24 25 60 42 81 16 21
27 41 24 44 -7 7 -56 -24 -56 -36 0 -4 -30 -23 -66 -41 -37 -18 -90 -55 -117
-81 -28 -27 -52 -49 -53 -49 -1 0 -7 28 -13 63 -7 34 -19 71 -26 83 -9 14 -12
40 -8 82 5 59 5 62 -16 62 -12 0 -24 -7 -27 -15 -5 -12 -11 -11 -34 7 -29 21
-50 18 -50 -7 0 -8 14 -37 31 -65 21 -34 32 -66 34 -98 1 -26 10 -67 19 -92 8
-25 16 -53 16 -63 0 -27 30 -67 51 -67 10 0 23 8 28 19 6 11 25 20 49 23 21 3
58 15 82 27 24 11 45 21 46 21 1 0 4 -48 6 -107 3 -60 9 -116 13 -126 12 -28
48 -31 259 -21 186 9 200 11 216 32 21 26 40 125 40 209 l0 60 71 7 c39 3 79
11 89 16 13 7 27 6 43 -1 30 -14 67 3 67 29 0 10 18 36 41 57 22 22 50 56 62
75 12 19 45 57 74 84 31 28 53 57 53 68 0 18 -5 20 -39 15 -33 -4 -40 -2 -44
14 -3 11 -14 19 -25 19 -22 0 -42 -43 -42 -89 0 -19 -9 -32 -28 -43 -16 -10
-42 -36 -58 -60 -48 -71 -88 -107 -107 -96 -10 5 -58 14 -108 19 -87 10 -93
12 -128 48 l-36 38 50 18 c35 12 66 33 102 71 47 49 55 54 95 54 56 0 83 26
99 97 15 65 0 94 -59 111 -39 12 -41 15 -48 60 -16 108 -82 166 -235 205 -52
14 -54 16 -57 51 -2 25 -8 36 -19 36 -23 0 -11 92 16 126 16 20 18 31 10 45
-12 23 -42 25 -59 4z m20 -218 c0 -20 -4 -23 -30 -19 -33 5 -32 4 -24 26 3 9
17 16 30 16 18 0 24 -5 24 -23z m60 -62 c106 -28 185 -70 212 -113 20 -33 23
-49 22 -137 -2 -181 -61 -272 -205 -316 -64 -19 -87 -21 -213 -17 -254 10
-302 56 -300 288 1 181 48 278 149 306 64 18 246 12 335 -11z m-504 -177 c-3
-13 -6 -53 -6 -90 l0 -68 -47 7 c-27 3 -49 7 -51 8 -6 5 21 141 30 153 6 6 26
12 45 12 32 0 35 -2 29 -22z m843 -112 c19 -19 6 -101 -20 -127 -17 -17 -68
-26 -81 -14 -3 3 1 22 8 43 7 20 13 57 14 81 l0 44 32 -7 c18 -4 39 -13 47
-20z m207 -195 c3 -11 9 -10 29 3 41 27 41 18 0 -24 -21 -21 -42 -37 -47 -34
-10 6 -11 78 -1 88 4 4 9 1 11 -6 2 -7 6 -19 8 -27z m-36 -79 c0 -26 -90 -126
-103 -113 -13 13 24 73 66 106 38 30 37 29 37 7z m-1198 -19 c17 -15 19 -15
34 3 14 18 15 17 8 -16 -11 -61 -19 -62 -53 -5 -22 38 -18 45 11 18z m628 -45
c0 -13 -14 -18 -65 -23 -74 -8 -95 -3 -95 23 0 16 9 18 80 17 68 0 80 -3 80
-17z m-564 -106 c8 -31 18 -65 20 -74 8 -29 -25 -21 -36 8 -6 14 -13 50 -17
81 -8 73 11 64 33 -15z m1009 12 c0 -19 -6 -30 -17 -32 -14 -3 -18 3 -18 26 0
16 3 32 7 36 14 13 28 -1 28 -30z m-756 -11 c-4 -16 -11 -41 -14 -56 -5 -23
-17 -33 -62 -53 -65 -29 -113 -41 -113 -28 0 21 68 89 123 125 33 22 64 39 68
39 4 0 3 -12 -2 -27z m656 6 c33 -9 37 -12 21 -21 -10 -5 -52 -12 -94 -15
l-77 -5 -12 32 -12 33 67 -7 c37 -4 85 -12 107 -17z m-869 -135 c-3 -9 -6 -22
-6 -30 0 -21 -18 -17 -25 6 -8 24 1 40 22 40 10 0 13 -6 9 -16z"/>
<path d="M1306 1399 c-87 -21 -124 -62 -151 -165 -57 -218 44 -328 300 -328
130 0 197 20 246 71 45 47 57 69 69 131 32 170 -98 281 -345 296 -44 3 -98 1
-119 -5z m217 -34 c85 -18 165 -60 194 -103 69 -104 12 -279 -102 -311 -67
-19 -187 -24 -261 -12 -86 15 -146 49 -168 95 -32 67 -11 229 37 290 44 54
163 70 300 41z"/>
<path d="M1282 1218 c-7 -7 -12 -15 -12 -19 0 -15 31 -38 45 -33 21 9 26 32 9
49 -19 18 -26 19 -42 3z"/>
<path d="M1574 1176 c-9 -22 4 -36 32 -36 21 0 25 4 22 23 -4 26 -45 37 -54
13z"/>
<path d="M1380 1096 c0 -21 39 -46 71 -46 30 0 78 34 66 46 -4 5 -17 3 -27 -4
-27 -17 -69 -15 -76 3 -8 19 -34 20 -34 1z"/>
<path d="M2355 1403 c-37 -9 -65 -46 -96 -126 -42 -109 -48 -166 -20 -191 12
-11 38 -22 59 -25 l37 -7 -2 -47 c-3 -56 6 -59 54 -16 19 17 40 28 47 26 6 -2
52 -12 101 -22 79 -16 94 -17 120 -4 42 21 64 66 77 162 17 130 2 154 -130
204 -58 21 -201 55 -220 52 -4 -1 -16 -3 -27 -6z m173 -49 c31 -9 83 -30 114
-45 70 -35 76 -52 60 -164 -19 -131 -48 -150 -176 -121 -90 21 -115 20 -144
-6 l-24 -23 6 31 c8 36 -3 48 -54 59 -71 15 -76 41 -29 171 43 117 55 128 131
120 33 -3 85 -13 116 -22z"/>
<path d="M2381 1246 l-23 -25 22 -30 c22 -32 40 -40 40 -19 0 6 -8 20 -17 30
-16 18 -15 19 5 34 12 8 20 20 17 25 -9 14 -20 11 -44 -15z"/>
<path d="M2492 1197 c-30 -31 -41 -57 -24 -57 10 0 82 73 82 83 0 17 -29 4
-58 -26z"/>
<path d="M2594 1215 c-4 -8 0 -22 7 -31 10 -13 10 -17 -2 -25 -8 -5 -20 -9
-26 -9 -7 0 -13 -7 -13 -15 0 -18 11 -19 44 -4 33 16 39 34 21 70 -18 33 -23
35 -31 14z"/>
<path d="M491 1114 c-17 -12 -21 -22 -17 -40 5 -18 -23 -127 -41 -162 -6 -12
-53 34 -53 52 0 53 -57 77 -94 40 -20 -19 -21 -68 -2 -83 20 -16 56 -22 75
-12 11 6 24 3 40 -10 l24 -20 -28 -29 c-16 -17 -39 -30 -51 -30 -12 0 -30 -7
-38 -16 -28 -28 -17 -58 26 -69 21 -5 30 -2 43 19 9 14 14 29 12 33 -3 5 7 23
21 41 l27 32 92 -6 c73 -6 93 -10 96 -23 4 -20 -22 -101 -33 -101 -5 0 -16 -7
-24 -16 -12 -12 -13 -20 -6 -35 14 -25 33 -25 25 1 -5 14 -2 20 9 20 20 0 21
-36 1 -44 -8 -3 -15 -10 -15 -16 0 -17 26 -11 45 10 15 17 17 26 9 48 -13 35
8 101 42 132 29 29 30 43 3 69 -30 28 -42 91 -22 114 15 16 15 20 0 52 -19 39
-50 47 -67 16 -16 -30 -12 -57 10 -72 15 -11 20 -28 22 -69 l3 -55 -74 -3
c-41 -2 -80 -1 -86 2 -16 6 34 156 52 156 12 0 43 38 43 52 0 9 -29 38 -38 38
-4 0 -18 -7 -31 -16z m143 -60 c3 -9 6 -17 6 -18 0 -1 -9 -2 -20 -3 -11 -1
-20 0 -20 2 0 11 13 35 20 35 4 0 11 -7 14 -16z m-284 -73 c14 -27 3 -48 -26
-48 -19 0 -24 5 -24 27 0 43 30 56 50 21z m318 -118 c-5 -25 -28 -28 -28 -4 0
12 6 21 16 21 9 0 14 -7 12 -17z m-313 -84 c0 -7 -8 -15 -17 -17 -18 -3 -25
18 -11 32 10 10 28 1 28 -15z"/>
<path d="M1387 633 c-25 -24 21 -83 65 -83 27 0 58 35 58 65 0 22 -29 31 -53
16 -14 -9 -22 -10 -30 -2 -12 12 -30 14 -40 4z"/>
</g>
</svg>
